<?xml version="1.0" encoding="utf-8"?>
<!-- Generator: Adobe Illustrator 23.0.6, SVG Export Plug-In . SVG Version: 6.00 Build 0)  -->
<svg version="1.1" id="Calque_1" xmlns="http://www.w3.org/2000/svg" xmlns:xlink="http://www.w3.org/1999/xlink" x="0px" y="0px"
	 viewBox="0 0 2472.41 564.94" style="enable-background:new 0 0 2472.41 564.94;" xml:space="preserve">
<style type="text/css">
	.st0{fill:#FFFFFF;}
</style>
<g>
	<path class="st0" d="M976.29,455.68c29.71,0,54.67,24.94,54.67,54.62c0,29.7-24.96,54.64-54.67,54.64
		c-29.71,0-54.61-24.94-54.61-54.64C921.68,480.62,946.58,455.68,976.29,455.68z"/>
	<g>
		<path class="st0" d="M1227.78,455.68c29.65,0,54.61,24.94,54.61,54.62c0,29.7-24.96,54.64-54.61,54.64
			c-29.71,0-54.67-24.94-54.67-54.64C1173.11,480.62,1198.07,455.68,1227.78,455.68z"/>
	</g>
	<path class="st0" d="M1550.73,499.83c-25.83,0-38.12-42.71-53.49-42.71c-15.38,0-22.14,13.24-22.14,13.24l-1.74,3.19
		c0,0-9.4-16.43-24.78-16.43c-15.38,0-27.67,43.18-53.5,43.18c0,0,17.23,60.65,75.65,60.65l4.37-0.23
		C1533.51,560.71,1550.73,499.83,1550.73,499.83"/>
</g>
<g>
	<path class="st0" d="M1056.17,311.89V83.03h139.27v41.54h-92.85v45.77h65.06v41.18h-65.06v58.85h92.85v41.52H1056.17z
		 M1163.07,25.18l-51,47.39l-23.21-25.16L1139.54,0L1163.07,25.18z"/>
	<path class="st0" d="M116.41,315.17C51.02,315.17,0,262.53,0,197.46C0,133.07,51.67,80.1,116.41,80.1
		c36.61,0,65.37,14.73,87.62,40.54l-34.64,30.07c-14.42-15.03-32.05-25.84-53.31-25.84c-38.9,0-68.97,31.72-68.97,72.58
		c0,41.53,30.07,72.91,68.97,72.91c21.58,0,39.55-11.1,54.26-27.14l35.97,28.78C184.39,298.14,155.63,315.17,116.41,315.17z"/>
	<path class="st0" d="M341.78,197.46c0-64.38,52.64-117.36,117.69-117.36c64.4,0,117.36,52.98,117.36,117.36
		c0,65.07-52.96,117.71-117.36,117.71C394.42,315.17,341.78,262.53,341.78,197.46z M528.46,197.46c0-43.14-29.44-73.55-69-73.55
		c-39.89,0-69.31,30.74-69.31,73.55c0,43.47,29.42,73.88,69.31,73.88C499.03,271.34,528.46,240.61,528.46,197.46z M412.07,37.61
		l34.31-34.33h25.18l34.65,34.33l-24.82,25.16l-22.25-25.5l-21.9,25.5L412.07,37.61z"/>
	<path class="st0" d="M790.12,311.89V126.21h-43.83V83.03h134.7v43.18h-43.81v185.68H790.12z"/>
	<path class="st0" d="M1609.94,310.41V81.57h83.34c45.14,0,73.88,29.1,73.88,75.19c0,29.42-11.76,51.33-31.68,63.74l39.2,89.9
		h-50.98l-32.05-78.77h-35.3v78.77H1609.94z M1722.38,156.76c0-20.9-13.39-32.7-36.27-32.7h-29.75v65.07h29.75
		C1708.66,189.13,1722.38,177.69,1722.38,156.76z"/>
	<path class="st0" d="M2080.63,231.95V81.57h47.1V229c0,59.53-37.93,84.69-79.45,84.69c-41.17,0-79.11-25.16-79.11-84.69V81.57
		h47.08v150.38c0,24.19,13.74,38.58,32.03,38.58C2066.93,270.53,2080.63,256.14,2080.63,231.95z"/>
	<path class="st0" d="M2333.15,310.41V81.57h139.25v41.54h-92.82v45.75h65.05v41.2h-65.05v58.86h92.82v41.5H2333.15z"/>
</g>
</svg>
