<?xml version="1.0" encoding="utf-8"?>
<!-- Generator: Adobe Illustrator 16.0.3, SVG Export Plug-In . SVG Version: 6.00 Build 0)  -->
<!DOCTYPE svg PUBLIC "-//W3C//DTD SVG 1.1//EN" "http://www.w3.org/Graphics/SVG/1.1/DTD/svg11.dtd">
<svg version="1.1" xmlns="http://www.w3.org/2000/svg" xmlns:xlink="http://www.w3.org/1999/xlink" x="0px" y="0px" width="200px"
	 height="163.115px" viewBox="0 0 200 163.115" enable-background="new 0 0 200 163.115" xml:space="preserve">
<g id="Calque_1">
</g>
<g id="Calque_2">
	<g>
		<path fill="#FFFFFF" d="M161.785,14.76l-6.232,6.232l-6.233-6.232h-23.517l-21.782,32.341l35.643,57.098l6.245-9.133l-9.74-15.416
			l-5.559-8.976l30.771-45.911h31.891l6.603-10.003H161.785z M124.81,61.308l-8.768-14.157l15.054-22.388h18.208L124.81,61.308z"/>
		<polygon fill="#FFFFFF" points="99.972,53.435 62.934,108.196 69.109,117.354 69.091,117.251 99.582,71.759 123.623,110.148 
			94.048,154.275 93.992,154.249 99.972,163.115 135.615,110.481 		"/>
		<path fill="#FFFFFF" d="M58.885,14.753H0l29.442,43.7l29.442,43.7l29.443-43.7l29.442-43.7H58.885z M78.801,54.322l-19.916,29.56
			l-19.916-29.56l-19.915-29.56h39.831h39.831L78.801,54.322z"/>
		<path fill="#FFFFFF" d="M125.802,14.753"/>
		<path fill="#FFFFFF" d="M62.934,108.116"/>
		<line fill="#FFFFFF" x1="62.934" y1="108.116" x2="96.157" y2="58.777"/>
	</g>
</g>
<g id="Calque_4">
	<g>
		<path fill="#FFFFFF" d="M0,0.102h1.893c2.775,0,4.668,1.037,4.668,3.889c0,2.177-1.525,3.655-3.868,3.758
			C2.524,7.753,0,7.748,0,7.748V0.102z M0.999,0.915v6.02h1.455c1.414,0,3.103-0.967,3.097-2.857
			C5.545,2.074,4.265,0.915,1.94,0.915H0.999z"/>
		<path fill="#FFFFFF" d="M14.023,7.748V0.102h1.022v7.646H14.023z"/>
		<path fill="#FFFFFF" d="M28.957,0.097l-2.921,7.651h-1.04l-2.945-7.651h1.075l2.413,6.415l2.401-6.415H28.957z"/>
		<path fill="#FFFFFF" d="M35.957,7.748V0.097h5.346L41.25,0.909h-4.3v2.573h3.774l-0.059,0.772H36.95v2.68h4.405l-0.053,0.813
			H35.957z"/>
		<path fill="#FFFFFF" d="M51.528,4.591h-1.7v3.157h-0.993V0.102h2.495c1.776,0,3.009,0.604,3.009,2.277
			c0,1.067-0.684,1.814-1.765,2.09l2.39,3.279h-1.209L51.528,4.591z M49.828,0.909v2.883h1.729c0.929,0,1.788-0.468,1.788-1.367
			c0-1.002-0.672-1.516-1.853-1.516H49.828z"/>
		<path fill="#FFFFFF" d="M76.08,6.029l0.759,0.473c-0.666,1.002-1.793,1.378-2.798,1.378c-2.454,0-3.57-1.912-3.57-3.91
			C70.47,1.86,71.563,0,73.994,0c0.83,0,1.969,0.314,2.67,1.296l-0.759,0.479c-0.596-0.748-1.355-0.941-1.939-0.941
			c-1.561,0-2.454,1.373-2.454,3.127c0,1.713,0.993,3.091,2.436,3.091C74.707,7.051,75.519,6.792,76.08,6.029z"/>
		<path fill="#FFFFFF" d="M84.266,7.748V0.102h1.022v7.646H84.266z"/>
		<path fill="#FFFFFF" d="M95.811,0.909v6.839h-1.022V0.909h-2.36V0.102h5.697v0.808H95.811z"/>
		<path fill="#FFFFFF" d="M107.859,3.808l2.214-3.706h1.086l-2.828,4.626v3.021h-0.987v-3.01l-2.84-4.637h1.157L107.859,3.808z"/>
		<path fill="#FFFFFF" d="M129.723,4.591h-1.7v3.157h-0.993V0.102h2.495c1.776,0,3.009,0.604,3.009,2.277
			c0,1.067-0.684,1.814-1.765,2.09l2.39,3.279h-1.209L129.723,4.591z M128.022,0.909v2.883h1.729c0.929,0,1.788-0.468,1.788-1.367
			c0-1.002-0.672-1.516-1.852-1.516H128.022z"/>
		<path fill="#FFFFFF" d="M140.205,7.748V0.097h5.346l-0.053,0.813h-4.3v2.573h3.774l-0.058,0.772h-3.716v2.68h4.406l-0.053,0.813
			H140.205z"/>
		<path fill="#FFFFFF" d="M158.201,6.029l0.759,0.473c-0.666,1.002-1.793,1.378-2.799,1.378c-2.454,0-3.57-1.912-3.57-3.91
			c0-2.109,1.093-3.97,3.523-3.97c0.83,0,1.969,0.314,2.67,1.296l-0.759,0.479c-0.596-0.748-1.355-0.941-1.94-0.941
			c-1.56,0-2.454,1.373-2.454,3.127c0,1.713,0.993,3.091,2.437,3.091C156.828,7.051,157.64,6.792,158.201,6.029z"/>
		<path fill="#FFFFFF" d="M169.308,0c2.255,0,3.406,1.851,3.406,3.894c0,1.652-0.724,3.986-3.4,3.986
			c-2.588,0-3.412-2.161-3.412-3.986C165.901,1.962,167,0,169.308,0z M169.313,7.046c2.021,0,2.36-2.186,2.36-3.137
			c0-1.104-0.543-3.102-2.366-3.102c-1.881,0-2.36,2.095-2.36,3.102C166.947,5.089,167.415,7.046,169.313,7.046z"/>
		<path fill="#FFFFFF" d="M182.957,4.591h-1.7v3.157h-0.993V0.102h2.495c1.776,0,3.009,0.604,3.009,2.277
			c0,1.067-0.684,1.814-1.765,2.09l2.39,3.279h-1.209L182.957,4.591z M181.256,0.909v2.883h1.729c0.929,0,1.788-0.468,1.788-1.367
			c0-1.002-0.672-1.516-1.853-1.516H181.256z"/>
		<path fill="#FFFFFF" d="M193.438,0.102h1.893c2.775,0,4.668,1.037,4.668,3.889c0,2.177-1.525,3.655-3.868,3.758
			c-0.17,0.005-2.694,0-2.694,0V0.102z M194.438,0.915v6.02h1.455c1.414,0,3.103-0.967,3.097-2.857
			c-0.006-2.003-1.286-3.162-3.611-3.162H194.438z"/>
	</g>
</g>
<g id="BELGA" display="none">
	<polygon display="inline" fill="none" stroke="#FF00FF" stroke-width="2" stroke-miterlimit="10" points="-1103.27,200.952 
		-1373.068,-199.299 -1642.866,-599.548 -1103.27,-599.548 -563.672,-599.548 -833.471,-199.299 	"/>
	
		<line display="inline" fill="none" stroke="#FF00FF" stroke-width="2" stroke-miterlimit="10" x1="-964.193" y1="-599.548" x2="-1303.354" y2="-95.878"/>
	
		<line display="inline" fill="none" stroke="#FF00FF" stroke-width="2" stroke-miterlimit="10" x1="-1081.702" y1="-425.042" x2="-889.416" y2="-116.304"/>
</g>
</svg>
