<?xml version="1.0" encoding="utf-8"?>
<!-- Generator: Adobe Illustrator 23.0.6, SVG Export Plug-In . SVG Version: 6.00 Build 0)  -->
<svg version="1.1" id="Calque_1" xmlns="http://www.w3.org/2000/svg" xmlns:xlink="http://www.w3.org/1999/xlink" x="0px" y="0px"
	 viewBox="0 0 451.6 89.3" style="enable-background:new 0 0 451.6 89.3;" xml:space="preserve">
<style type="text/css">
	.st0{fill:#FFFFFF;}
</style>
<g>
	<g>
		<g>
			<polygon class="st0" points="58.1,82.1 0,80.9 58.1,79.7 60.4,80.9 			"/>
			<path class="st0" d="M58.2,82.5L58.2,82.5L0,81.3v-0.7l58.2-1.2l3,1.6L58.2,82.5z M17.8,80.9L58,81.8l1.6-0.8L58,80.1L17.8,80.9z
				"/>
		</g>
		<g>
			<polygon class="st0" points="393.5,79.7 451.6,80.9 393.5,82.1 391.3,80.9 			"/>
			<path class="st0" d="M393.4,82.5l-3-1.6l3-1.6l0.1,0l58.1,1.2v0.7L393.4,82.5z M392,80.9l1.6,0.8l40.2-0.8l-40.2-0.8L392,80.9z"
				/>
		</g>
	</g>
</g>
<g>
	<g>
		<path class="st0" d="M83.2,80.9v-1h4.1v6.4c0,1.9-1.2,2.9-3.5,2.9h-1c-2.4,0-3.6-1-3.6-2.9V73.9c0-1.9,1.2-2.9,3.6-2.9h1
			c2.3,0,3.5,1,3.5,2.9v2.9h-1.2v-2.9c0-1.3-0.8-2-2.3-2h-0.9c-1.6,0-2.4,0.7-2.4,2v12.6c0,1.3,0.8,2,2.4,2h0.9c1.6,0,2.4-0.7,2.4-2
			v-5.5H83.2z"/>
		<path class="st0" d="M106.7,86.3c0,1.9-1.2,3-3.6,3h-0.8c-2.4,0-3.6-1-3.6-3V71.1h1.2v15.3c0,1.3,0.8,2,2.4,2h0.7
			c1.6,0,2.4-0.6,2.4-2V71.1h1.2V86.3z"/>
		<path class="st0" d="M125.3,89.2l-5.9-15.6l0.1,12.3v3.2h-1.1V71.1h1.2l5.9,15.6l-0.1-12.4v-3.2h1.1v18.1H125.3z"/>
		<path class="st0" d="M156.9,85.9l-0.4,1.1c-0.6,1.6-1.4,2.3-3.4,2.3h-0.4c-2,0-3.1-0.9-3.1-2.5v-4.3c0-1.2,0.2-2,1.2-2.7l1.5-1.1
			l-0.8-1.2c-0.6-1-0.7-1.6-0.7-2.7v-1.2c0-1.8,1.1-2.7,3.2-2.7h0.6c2.2,0,3.3,0.9,3.3,2.7v2.9h-1.2v-2.9c0-1.2-0.7-1.8-2.2-1.8
			h-0.5c-1.4,0-2.1,0.6-2.1,1.8v1.2c0,0.8,0.1,1.4,0.6,2.2l4.1,6.6l1.9-4.9h1.1l-2.3,5.9l2.9,4.4H159L156.9,85.9z M155.4,86.8
			l0.8-1.9l-3.3-5.3l-1.2,0.9c-0.7,0.5-0.9,1-0.9,2v4.3c0,1,0.7,1.6,1.9,1.6h0.6C154.5,88.4,155,87.8,155.4,86.8z"/>
		<path class="st0" d="M190.1,83.2v6h-1.2v-6c0-1.5-0.9-2.2-2.7-2.2h-2.4v8.2h-1.2V71.1h4c2.4,0,3.5,1,3.5,2.9v3.5
			c0,1.7-0.9,2.5-2.2,2.9C189.2,80.7,190.1,81.5,190.1,83.2z M186.4,72h-2.7V80h2.4c1.8,0,2.7-0.7,2.7-2.2V74
			C188.8,72.7,188.1,72,186.4,72z"/>
		<path class="st0" d="M203,89.2h-1.2V71.1h1.2V89.2z"/>
		<path class="st0" d="M220.7,71.1v1h-4.9v7.4h4.7v1h-4.7v8.7h-1.2V71.1H220.7z"/>
		<path class="st0" d="M232.9,71.1v17.1h4.8v1h-6V71.1H232.9z"/>
		<path class="st0" d="M254.5,71.1v1h-5v7.4h4.8v1h-4.8v7.8h5.1v1h-6.3V71.1H254.5z"/>
		<path class="st0" d="M278.8,73.4l0.1,12v3.7h-1.1V71.1h1.5l4.4,16.2l4.4-16.2h1.5v18.1h-1.2v-3.8l0.1-11.8l-4.3,15.6h-1.1
			L278.8,73.4z"/>
		<path class="st0" d="M309.5,89.2h-1.1l-0.8-3.8h-5.2l-0.8,3.8h-1.2l3.9-18.2h1.2L309.5,89.2z M302.7,84.4h4.7L305,72.9L302.7,84.4
			z"/>
		<path class="st0" d="M326.9,89.2l-5.2-9v9h-1.2V71.1h1.2V80l5.4-8.9h1.2l-5.5,8.9l5.4,9.2H326.9z"/>
		<path class="st0" d="M345,71.1v1h-5v7.4h4.8v1H340v7.8h5.1v1h-6.3V71.1H345z"/>
		<path class="st0" d="M363.9,83.2v6h-1.2v-6c0-1.5-0.9-2.2-2.7-2.2h-2.4v8.2h-1.2V71.1h4c2.4,0,3.5,1,3.5,2.9v3.5
			c0,1.7-0.9,2.5-2.2,2.9C363.1,80.7,363.9,81.5,363.9,83.2z M360.3,72h-2.7V80h2.4c1.8,0,2.7-0.7,2.7-2.2V74
			C362.7,72.7,361.9,72,360.3,72z"/>
	</g>
</g>
<g>
	<g>
		<path class="st0" d="M18.7,0h38.9v3.2h-4.7c-1.6,0-2.9,0.8-3.8,2.4c-0.9,1.6-1.4,3.5-1.4,5.8v22.2c0,2.6-0.3,4.9-1,6.8
			c-0.6,1.9-1.7,3.6-3.2,5.1c-3,2.9-8.1,4.3-15.3,4.3s-13.8-1.8-19.6-5.4V48H6.4V28.6h2.3c0.4,1.4,1.1,3.3,2.2,5.7
			c1.1,2.4,2.2,4.3,3.3,5.9c1.1,1.6,2.6,3,4.4,4.3s3.6,1.9,5.4,1.9c3.7,0,5.5-2.7,5.5-8V11.3c0-2.3-0.5-4.2-1.4-5.8
			c-0.9-1.6-2.2-2.4-3.7-2.4h-5.7V0z M35.6,32.6V3.2h-3v40.1C34.6,42,35.6,38.4,35.6,32.6z"/>
		<path class="st0" d="M78,33.8c1.9,1.8,2.8,4,2.8,6.6c0,2.6-0.9,4.7-2.8,6.5c-1.9,1.8-4.2,2.7-6.8,2.7s-4.9-0.9-6.8-2.7
			c-1.9-1.8-2.8-4-2.8-6.5c0-2.6,0.9-4.7,2.8-6.6c1.9-1.8,4.2-2.7,6.8-2.7S76.1,32,78,33.8z M65.7,40.4c0-2.4,0.6-4.5,1.7-6.2
			l-0.1-0.3c-1.2,0.7-2.1,1.6-2.8,2.8c-0.7,1.2-1.1,2.4-1.1,3.7c0,1.3,0.4,2.6,1.1,3.7c0.7,1.2,1.7,2.1,2.8,2.8l0.1-0.3
			C66.3,44.9,65.7,42.8,65.7,40.4z"/>
		<path class="st0" d="M118.9,0h38.9v3.2h-4.7c-1.6,0-2.9,0.8-3.8,2.4c-0.9,1.6-1.4,3.5-1.4,5.8v22.2c0,2.6-0.3,4.9-1,6.8
			c-0.6,1.9-1.7,3.6-3.2,5.1c-3,2.9-8.1,4.3-15.3,4.3s-13.8-1.8-19.6-5.4V48h-2.3V28.6h2.3c0.4,1.4,1.1,3.3,2.2,5.7
			c1.1,2.4,2.2,4.3,3.3,5.9c1.1,1.6,2.6,3,4.4,4.3s3.6,1.9,5.4,1.9c3.7,0,5.5-2.7,5.5-8V11.3c0-2.3-0.5-4.2-1.4-5.8
			c-0.9-1.6-2.2-2.4-3.7-2.4h-5.7V0z M135.8,32.6V3.2h-3v40.1C134.8,42,135.8,38.4,135.8,32.6z"/>
		<path class="st0" d="M227.5,44.8V48h-35.3v-3.2h3.5c0.8,0,1.5-0.3,2-0.8c0.5-0.6,0.8-1.4,0.8-2.5s-0.5-2.6-1.4-4.4l-1.7-3.4h-20.8
			c-0.9,2.2-1.4,4.2-1.4,5.9c0,1.7,0.3,3,1,3.9c0.7,0.9,1.5,1.4,2.5,1.4h4.4V48h-20.5v-3.2c1,0,2-0.4,3.1-1.1c1.1-0.8,2-1.7,2.8-2.8
			c0.8-1.1,1.6-2.2,2.3-3.3c0.7-1.1,1.2-2.1,1.6-2.8c0.4-0.7,0.5-1.1,0.5-1.2l12.1-24.1l-1.2-2.3c-0.8-1.4-1.5-2.4-2.4-3.1
			c-0.8-0.6-2-0.9-3.4-0.9h-3.7V0h26.9l23,44.8H227.5z M176.3,30.1h17.3L184.7,13L176.3,30.1z M204.9,44.8h3.6L187.1,3.2h-3.6
			L204.9,44.8z"/>
		<path class="st0" d="M315.5,3.2h-7.9c-1.5,0-2.8,0.5-3.7,1.4c-0.9,1-1.4,2.5-1.4,4.5v27.7c0,2.8,0.5,4.8,1.4,6.1
			c0.9,1.3,2.2,1.9,3.7,1.9h7.9V48h-42.1v-3.2h5.6c1.5,0,2.8-0.6,3.7-1.9c0.9-1.3,1.4-3.3,1.4-6.1V6.7l-14.4,35h-2.4l-18.1-24.1v9.9
			c0,3,0.5,5.7,1.4,8c0.9,2.3,2.2,4.1,3.7,5.4c3,2.6,6.3,3.8,9.7,3.8V48h-32.7v-3.2c3.5,0,6.7-1.3,9.7-3.8c1.5-1.3,2.7-3.1,3.7-5.4
			c0.9-2.3,1.4-5,1.4-8v-7.8c0-3.2-0.8-6.2-2.3-8.7c-1.5-2.6-3.4-4.5-5.7-5.9c-2.3-1.3-4.8-2-7.4-2V0h30.4l14.4,19.3L283.5,0h32V3.2
			z M269,35.5v-4.7L248.3,3.3h-4.7l24.2,32.2H269z M287.4,3.2v41.6h3.1V3.2H287.4z"/>
		<path class="st0" d="M352.5,11.3v25.5c0,2.8,0.5,4.8,1.4,6.1c0.9,1.3,2.2,1.9,3.7,1.9h5.7V48h-40v-3.2h5.7c1.5,0,2.8-0.6,3.7-1.9
			c0.9-1.3,1.4-3.3,1.4-6.1V11.3c0-2.2-0.5-4.1-1.5-5.7c-1-1.6-2.2-2.4-3.6-2.4h-5.7V0h40v3.2h-5.7c-1.4,0-2.6,0.8-3.6,2.4
			C353,7.2,352.5,9.1,352.5,11.3z M340.4,44.8V3.2h-3.1v41.6H340.4z"/>
		<path class="st0" d="M417.3,0h24.4v3.2C434.6,3.2,431,8,431,17.7v33.4h-4.2L394.1,20c-0.8-0.7-1.6-1-2.4-1c-1.6,0-2.4,1.7-2.4,5.2
			v3.4c0,3.1,0.5,5.7,1.4,8c0.9,2.3,2.2,4.1,3.7,5.4c3,2.6,6.2,3.8,9.7,3.8V48h-32.7v-3.2c3.4,0,6.7-1.3,9.7-3.8
			c1.5-1.3,2.7-3.1,3.7-5.4c0.9-2.3,1.4-5,1.4-8v-7.8c0-3.2-0.8-6.2-2.3-8.7s-3.4-4.5-5.7-5.9c-2.3-1.3-4.8-2-7.4-2V0h35.2
			l16.4,16.2c2.4,2.4,3.9,3.5,4.4,3.5c0.7,0,1.1-0.7,1.1-2c0-9.7-3.6-14.5-10.7-14.5V0z M386.6,3.2v4.1l40.2,38.2v-5.3L387.9,3.2
			H386.6z"/>
	</g>
</g>
</svg>
