<?xml version="1.0" encoding="utf-8"?>
<!-- Generator: Adobe Illustrator 23.0.6, SVG Export Plug-In . SVG Version: 6.00 Build 0)  -->
<svg version="1.1" id="Layer_1" xmlns="http://www.w3.org/2000/svg" xmlns:xlink="http://www.w3.org/1999/xlink" x="0px" y="0px"
	 viewBox="0 0 129.6 127.7" style="enable-background:new 0 0 129.6 127.7;" xml:space="preserve">
<style type="text/css">
	.st0{opacity:0.65;}
	.st1{opacity:0.9;}
	.st2{fill:#FFFFFF;}
</style>
<g>
	<g class="st0">
		<g class="st1">
			<g class="st1">
				<path class="st2" d="M41,7.4c4.2-2.1,8.6-3.7,13.2-4.8C58.7,1.5,63.4,1,68.1,1C66,1,64,1.1,62,1.3C55.1,2.1,47.8,4,41,7.4z"/>
				<path class="st2" d="M21,23.3L21,23.3c4.6-5.6,10.2-10.4,16.5-14c-0.4,0.3-0.8,0.5-1.3,0.8C30.4,13.6,25.3,18.1,21,23.3z"/>
				<path class="st2" d="M47.5,119.1c-3.4-1.2-7.1-2.8-10.8-4.9c-3.6-2.1-7.1-4.6-10.2-7.4c-0.8-0.7-1.5-1.5-2.3-2.2
					c-0.7-0.7-1.4-1.5-2-2.2c0,0-0.1-0.1-0.4-0.4c-0.2-0.3-0.6-0.7-1-1.2c-0.8-1-1.9-2.4-3-4c-2.3-3.3-4.5-7.5-5.8-10.5
					c1.6,3.4,3.2,6.3,4.7,8.4c-0.7-1.1-1.7-2.7-2.4-4.2c-0.8-1.4-1.2-2.6-1.2-2.6c0.6,1.1,3,5.8,6.3,10.1c0.1,0.2,0.4,0.6,0.9,1.2
					c0.5,0.6,1.1,1.4,1.9,2.4c1.6,1.9,3.9,4.3,6.6,6.6c2.7,2.4,6,4.6,9.2,6.5C41.4,116.7,44.7,118.1,47.5,119.1z"/>
				<path class="st2" d="M75,122.4c3.8-0.4,8.2-1.3,12-2.6c3.8-1.2,7.1-2.7,9-3.7c-2.2,1.2-4.5,2.4-7.5,3.4c1.2-0.4,2.2-0.8,3.2-1.2
					c0.5-0.2,1-0.4,1.5-0.6c0.5-0.2,1-0.5,1.6-0.8c-0.6,0.3-1.2,0.6-1.8,0.9c-11.8,5.3-25.2,6.7-37.7,4c0.2,0.1,1.3,0.2,2.9,0.5
					c1.6,0.2,3.7,0.4,5.9,0.6C68.6,123.2,73.3,122.8,75,122.4z"/>
				<path class="st2" d="M52.4,120.8c2.8,0.7,5.4,1.3,7.9,1.5c2.4,0.3,4.9,0.5,7.3,0.5c2.5,0,4.9-0.1,7.4-0.4
					c-3.4,0.5-8.4,0.9-14.3,0.3c0.8,0.1,1.6,0.2,2.5,0.3c-4.1-0.3-6.9-1-7.8-1.1c-11.6-2.5-22.5-8.4-30.9-17
					c0.5,0.5,0.9,0.9,1.4,1.3c0.5,0.4,0.9,0.9,1.4,1.3c0.9,0.9,1.9,1.7,2.9,2.5c-0.5-0.5-1.1-0.9-1.7-1.4c-0.6-0.5-1.3-1.2-2.1-1.8
					c3.1,2.8,6.6,5.3,10.2,7.4c3.6,2.1,7.3,3.7,10.8,4.9c0.8,0.3,1.6,0.5,2.3,0.8C50.5,120.2,51.1,120.4,52.4,120.8z"/>
				<path class="st2" d="M26.8,17.4c-5.4,5.2-8.1,9.4-10.1,12.8c-1.2,1.8-3.2,5.5-4.3,8.3C11.2,41,9.8,45.1,9,48.9
					c-0.8,3.7-1.2,7.1-1.2,8c0,0.5,0,0,0.1-1.2c0.1-1.1,0.3-2.9,0.6-4.8c0.6-3.9,2-8.6,3-11.1c0.1-0.3,0.4-1.1,0.8-2.3
					c0.5-1.1,1.1-2.6,1.9-4.1c0.5-1,0.1-0.1,0.6-1.1c0,0,0.2-0.4,0.5-0.9c0.2-0.4,0.5-0.9,0.5-0.9s0.3-0.4,0.7-1.1
					c0.5-0.7,1.1-1.6,1.8-2.7c1.5-2,3.3-4.4,4.7-5.9c0.7-0.7,1.9-1.9,2.9-3c1.1-1,1.9-1.8,2.1-1.9c0.9-0.8,1.8-1.5,2.7-2.2l0.1-0.1
					c-1.2,1-2.4,1.9-3.5,3C26.7,17.4,26.8,17.4,26.8,17.4z"/>
				<path class="st2" d="M13.1,88c0.6,1.1,3,5.8,6.3,10.1c-0.7-0.8-1.7-2.4-2.6-3.8c-0.4-0.7-0.8-1.4-1.2-1.9
					c-0.3-0.5-0.5-0.9-0.6-1.1c0.3,0.6,0.8,1.5,0.1,0.4c-1.7-2.9-3.4-6.8-4.2-9.3c-1.1-3.1-1.9-6.5-2.5-9.9
					c-0.5-2.8-0.8-5.6-0.9-8.4c0-0.1,0-0.5,0-0.9c0-0.4-0.1-0.8-0.1-0.8c0-2,0.1-3.7,0.2-5.5c0,0,0-0.3,0.1-0.7
					c0-0.4,0.1-1.1,0.2-1.8c0.2-1.5,0.5-3.5,0.9-5.5c0.8-4.1,2.3-8.2,2.6-9c0.1-0.3,0.4-1.1,0.8-2.3c0.5-1.1,1.1-2.6,1.9-4.1
					c0,0-0.3,0.6-0.8,1.5c-0.4,0.9-1,2.1-1.6,3.5C10.6,41.3,9.6,44.7,9,47c0-0.2,0.6-1.8,0.7-2.3c-0.2,0.6-1.4,5-1.7,6.9
					c-0.2,0.7-0.3,1.7-0.4,2.8c-0.2,1.1-0.3,2.3-0.4,3.4C7,60.1,7,62.1,7,62.4c0,0.9,0-0.9,0.1-0.9C7,65.2,7.3,68.9,8,72.8
					c0.2,1,0.4,2.1,0.6,3.1c0.1,0.3,0.1,0.6,0,0.1c-0.1-0.7-0.3-1.3-0.4-2c0.1,0.5,0.3,1.3,0.5,2.4c0.3,1,0.6,2.3,1,3.5
					c0.2,0.6,0.4,1.2,0.6,1.8c0.2,0.6,0.4,1.2,0.6,1.7c0.4,1.1,0.7,1.9,1,2.4c-0.4-1-0.8-2.1-1.2-3.1c-0.4-1-0.7-2.1-1-3.1
					c0.3,1.1,0.7,2.2,1.1,3.2l0.6,1.6l0.7,1.6l0.1,0.3c1.6,3.4,3.2,6.2,4.7,8.4c-0.7-1.1-1.7-2.7-2.4-4.2C13.6,89.2,13.1,88,13.1,88
					z"/>
				<path class="st2" d="M129.3,64.3c-0.1,2.4-0.4,5.5-0.9,8.4c-0.5,3-1.3,5.8-2,7.8c-0.5,1.5-0.9,2.5-1.2,3.1
					c-0.3,0.6-0.5,1-0.6,1.2c-0.3,0.4-0.3,0.4-0.9,1.5c2-4.5,3.4-9.3,4.2-14.2c0.8-4.9,1-9.9,0.7-14.8c-0.4-5-1.4-9.9-3-14.6
					c-1.6-4.7-3.8-9.2-6.5-13.4c1.4,2.1,3,5,4.4,7.9c1.3,3,2.4,5.9,3,7.9c0,0-0.1-0.4-0.3-0.9c-0.2-0.5-0.3-1.1-0.5-1.5
					c0.8,2.4,1.7,5.7,2.3,8.4c0.2,1.4,0.5,2.6,0.6,3.5c0.1,0.4,0.1,0.8,0.1,1c0,0.2,0.1,0.4,0.1,0.4c0,0,0-0.4,0-0.9
					c0-0.5,0-1.1-0.1-1.4c0.1,0.6,0.1,1.3,0.2,1.9C129.2,57.6,129.4,60.7,129.3,64.3z"/>
				<path class="st2" d="M119.4,28.7c2.6,3.9,4.7,8.2,6.3,12.6c0,0.1,0,0.2,0.1,0.3c-1.8-5.2-4.4-10.1-7.6-14.6
					C118.7,27.6,119.1,28.2,119.4,28.7z"/>
				<path class="st2" d="M125.8,42.7c0.1,0.4,0.3,1,0.5,1.5c0.2,0.5,0.3,0.9,0.3,0.9c-0.6-2-1.7-4.9-3-7.9c-1.3-3-3-5.9-4.4-7.9
					c-4.1-6.4-9.5-12.1-15.8-16.5c1.1,0.8,2.2,1.5,3.2,2.4c-3.3-2.6-4-3.2-7.6-5.4c5.4,3,11.2,7.7,15.7,12.9
					c4.5,5.2,7.8,11,9.7,15.2c1.1,2.5,2,5.1,2.8,7.8c0.7,2.6,1.3,5.3,1.7,8.1c0,0.4,0,0.9,0.1,1.4c0,0.5,0,0.9,0,0.9
					c0,0,0-0.1-0.1-0.4c0-0.3-0.1-0.6-0.1-1c-0.1-0.9-0.3-2.1-0.6-3.5C127.5,48.4,126.7,45.1,125.8,42.7z"/>
				<path class="st2" d="M98.9,9.7c3.7,2.2,4.3,2.8,7.6,5.4c-1-0.8-2.1-1.6-3.2-2.4C96.1,7.6,87.7,4.1,79,2.5
					c-0.6-0.1-1.2-0.2-1.7-0.3c-3.3-0.5-6.5-0.7-9.5-0.7c-3.1,0-6.1,0.3-9.2,0.8c4.1-0.7,8.4-1.1,12.7-0.9
					c8.1,0.5,16.9,2.7,25.3,7.2c-1.5-0.8-2.1-1.1-2.4-1.3c-0.4-0.2-0.6-0.3-1.3-0.7c-2.9-1.3-5.6-2.4-7.3-2.9
					c-1.7-0.6-2.3-0.8-0.7-0.4c12.8,3.6,24.5,11.5,32.5,22.3c0.3,0.4,0.6,0.8,0.9,1.3c0.3,0.5,0.6,0.9,0.8,1.2
					c2.1,3.1,3.9,6.4,5.4,9.8c-1.9-4.3-5.2-10-9.7-15.2C110.1,17.4,104.3,12.7,98.9,9.7z"/>
				<path class="st2" d="M71.3,1.4c-4.4-0.1-8.6,0.2-12.7,0.9c-0.8,0.1-1.6,0.2-2.4,0.4c-0.8,0.2-1.6,0.3-2.5,0.5c0,0,0,0,0.6-0.1
					c-1.2,0.3-2.3,0.6-3.5,0.9c-0.7,0.2-1.4,0.4-2.1,0.6c-0.7,0.3-1.5,0.6-2.5,0.9c-1.6,0.6-3.1,1.3-4.6,2c-1.6,0.7-2.9,1.4-3.7,1.8
					l0,0c-0.8,0.5-1.5,0.9-2.2,1.3c-0.7,0.5-1.4,0.9-2.1,1.4c0,0,0,0-0.1,0.1c-3.3,2.2-6.9,5.4-9.7,8.4c-1.4,1.5-2.5,2.9-3.5,4.1
					c-0.9,1.2-1.5,2.1-1.8,2.5c-0.6,1-1.3,1.9-1.9,2.9c2-3.4,4.8-7.6,10.1-12.8c0,0,0,0,0.6-0.6c1.1-1.1,2.3-2,3.5-3
					C34.5,11,39.1,8.3,43,6.5c3.8-1.7,6.8-2.6,7-2.7c1.3-0.4,2.6-0.7,3.9-1.1c3.7-0.9,8.5-1.6,13.4-1.7c2.5-0.1,5,0.1,7.5,0.3
					c2.4,0.3,4.8,0.6,7,1.1c1,0.2,2,0.5,3,0.8c-1.5-0.4-1-0.2,0.7,0.4c1.7,0.5,4.5,1.6,7.3,2.9c1.6,0.7,6.4,3.4,3.8,2
					c-4.7-2.6-11.1-4.9-16.3-6c-2.6-0.5-4.9-0.9-6.6-1C72.1,1.4,71.1,1.3,71.3,1.4z"/>
				<path class="st2" d="M119.9,94.3c1.5-2.5,2.9-5.1,4.1-7.8c-1.3,2.9-2.9,5.8-3.7,7.2c-0.4,0.6-0.8,1.2-1.2,1.9
					c-0.4,0.6-0.9,1.3-1.4,2C118.4,96.6,119.2,95.4,119.9,94.3z"/>
				<path class="st2" d="M116.9,99.1c-0.5,0.7-1.1,1.3-1.6,2c0,0,0.1-0.1,0.2-0.2c0.1-0.2,0.3-0.4,0.5-0.6c0.4-0.5,0.9-1.2,1.4-1.9
					c0,0-0.1,0.1-0.2,0.2C117.1,98.7,116.9,98.9,116.9,99.1c-0.3,0.3-0.6,0.6-0.6,0.6c0,0,0.5-0.8,1.2-1.7c0,0-0.6,1.1-1.4,2.1
					l-1.1,1.3C115.7,100.7,116.6,99.5,116.9,99.1z"/>
				<path class="st2" d="M94.9,117.1c-0.6,0.3-1.1,0.5-1.6,0.8c-0.5,0.2-1,0.4-1.5,0.6c-1,0.4-2,0.8-3.2,1.2c3-1.1,5.3-2.3,7.5-3.4
					c6.9-3.5,13-8.2,18.1-14c-0.9,1-1.8,2.1-2.7,2.9c0.6-0.6,1.1-1.2,1.7-1.7c0.5-0.6,1.1-1.1,1.5-1.7c-0.2,0.3-0.4,0.5-0.5,0.6l0,0
					c-0.8,0.9-1.4,1.6-1.4,1.6c0,0,0.3-0.3,0.6-0.6c0.1-0.2,0.3-0.3,0.4-0.4c0.1-0.1,0.2-0.2,0.2-0.2c-0.6,0.6-1.1,1.2-1.6,1.7
					c-0.2,0.2-0.4,0.4-0.5,0.6c-0.1,0.1-0.2,0.2-0.2,0.2c0.6-0.6,1.2-1.2,1.8-1.9c-0.2,0.2-0.5,0.6-0.9,1c-0.4,0.4-0.8,0.8-1.2,1.2
					c-5.3,5.2-11.4,9.4-18.1,12.5C93.7,117.7,94.3,117.4,94.9,117.1z"/>
			</g>
		</g>
		<g class="st1">
			<g class="st1">
				<path class="st2" d="M54.7,122.3c-4.7-0.6-9.3-1.6-13.7-3.2c-4.4-1.6-8.7-3.7-12.6-6.3c1.8,1.1,3.5,2.1,5.4,3
					C39.9,119,47.1,121.4,54.7,122.3z"/>
				<path class="st2" d="M80.3,119.9C80.2,119.9,80.2,119.9,80.3,119.9c-7,2.2-14.3,3.2-21.6,2.8c0.5,0,1,0,1.5,0
					C67,122.8,73.8,121.9,80.3,119.9z"/>
				<path class="st2" d="M110.2,25c2.3,2.8,4.6,6.1,6.6,9.8c2,3.7,3.6,7.7,4.7,11.8c0.3,1,0.5,2.1,0.7,3.1c0.2,1,0.4,2,0.5,2.9
					c0,0,0,0.2,0.1,0.5c0,0.4,0.1,0.9,0.2,1.5c0.2,1.3,0.3,3.1,0.3,5.1c0.1,4-0.3,8.8-0.9,12c0.5-3.8,0.5-7.1,0.4-9.7
					c-0.1,1.3-0.1,3.2-0.3,4.8c-0.1,0.8-0.2,1.5-0.3,2s-0.1,0.8-0.2,0.8c-0.1-1.3,0.5-6.5-0.1-11.9c0-0.2,0-0.7-0.1-1.5
					c-0.1-0.8-0.2-1.8-0.3-3c-0.3-2.5-0.9-5.7-1.9-9.1c-1-3.5-2.4-7.1-4.1-10.4C113.9,30.4,111.9,27.4,110.2,25z"/>
				<path class="st2" d="M89,7.2c-3.4-1.7-7.5-3.4-11.4-4.4c-3.9-1.1-7.4-1.6-9.5-1.9c2.5,0.1,5.1,0.3,8.2,1C75,1.6,74,1.3,72.9,1.1
					c-0.5-0.1-1.1-0.2-1.6-0.3c-0.6-0.1-1.1-0.2-1.8-0.3c0.7,0.1,1.3,0.1,2,0.2c12.8,2,24.8,8.1,33.9,17.3c-0.2-0.2-1-0.9-2.2-2
					c-1.3-1-2.9-2.4-4.7-3.6C94.8,9.9,90.6,7.9,89,7.2z"/>
				<path class="st2" d="M106.9,20.9c-2-2.1-3.8-4-5.7-5.5c-1.8-1.6-3.8-3.1-5.8-4.4c-2.1-1.3-4.2-2.6-6.4-3.7
					c3.2,1.3,7.6,3.6,12.3,7.3c-0.6-0.6-1.2-1.1-1.9-1.6c3.3,2.5,5.3,4.6,6,5.1c8.4,8.5,14.3,19.4,16.7,31.2
					c-0.1-0.6-0.3-1.3-0.4-1.9c-0.2-0.6-0.3-1.2-0.5-1.9c-0.3-1.3-0.7-2.5-1.1-3.7c0.1,0.6,0.4,1.3,0.6,2.1c0.2,0.8,0.5,1.7,0.7,2.7
					c-1.1-4-2.8-8.1-4.7-11.8c-2-3.7-4.3-7-6.6-9.8c-0.5-0.7-1-1.3-1.5-2C108.2,22.5,107.8,22,106.9,20.9z"/>
				<path class="st2" d="M72.1,121.5c7.3-1.5,11.9-3.6,15.4-5.5c2-0.9,5.6-2.8,8.1-4.6c2.3-1.5,5.7-4.1,8.4-6.8
					c2.7-2.7,4.9-5.3,5.4-6.1c0.3-0.4,0,0-0.7,0.9c-0.7,0.9-1.8,2.3-3.1,3.7c-2.6,3-6.3,6.2-8.4,7.8c-0.2,0.2-0.9,0.8-1.9,1.5
					c-1,0.7-2.3,1.6-3.8,2.5c-1,0.5-0.2,0-1.2,0.5c0,0-0.1,0.1-0.3,0.2c-0.2,0.1-0.4,0.2-0.6,0.3c-0.4,0.2-0.9,0.5-0.9,0.5
					s-0.5,0.2-1.2,0.6c-0.8,0.3-1.8,0.8-3,1.3c-2.4,0.9-5.2,1.9-7.2,2.3c-1.2,0.2-2.7,0.6-4.1,0.9c-1.5,0.3-2.7,0.5-2.8,0.5
					c-1.2,0.1-2.3,0.3-3.5,0.4c0,0-0.1,0-0.1,0c1.5-0.2,3-0.4,4.6-0.7C72.2,121.6,72.1,121.5,72.1,121.5z"/>
				<path class="st2" d="M122.1,69.7c-0.1-1.3,0.5-6.5-0.1-11.9c0.1,1.1,0.1,2.9,0.1,4.6c0,0.8-0.1,1.6-0.1,2.2
					c-0.1,0.6-0.1,1.1-0.1,1.2c0.1-0.6,0.3-1.7,0.2-0.4c-0.2,3.4-0.8,7.6-1.5,10c-0.8,3.1-1.9,6.5-3.3,9.6c-1.1,2.6-2.4,5.1-3.8,7.5
					c-0.1,0.2-0.8,1.5-0.8,1.5c-1.1,1.6-2.1,3.1-3.2,4.4c0,0-0.2,0.2-0.4,0.6c-0.3,0.4-0.7,0.8-1.1,1.4c-0.9,1.2-2.3,2.7-3.7,4.2
					c-2.9,3-6.3,5.7-6.9,6.2c-0.2,0.2-0.9,0.8-1.9,1.5c-1,0.7-2.3,1.6-3.8,2.5c0,0,0.6-0.3,1.5-0.8c0.8-0.5,2.1-1.2,3.3-2.1
					c2.6-1.7,5.3-4,7.1-5.5c-0.1,0.1-1.5,1.2-1.9,1.5c0.5-0.4,4-3.4,5.2-4.8c0.5-0.5,1.2-1.3,1.9-2.1c0.7-0.8,1.5-1.8,2.2-2.7
					c1.4-1.8,2.5-3.5,2.7-3.8c0.5-0.7-0.5,0.7-0.6,0.7c2.1-3,4-6.3,5.5-9.9c0.4-1,0.8-2,1.2-2.9c0.1-0.3,0.2-0.5,0.1-0.1
					c-0.2,0.6-0.5,1.3-0.7,1.9c0.2-0.5,0.5-1.3,0.9-2.3c0.3-1,0.8-2.3,1.1-3.5c0.2-0.6,0.4-1.3,0.5-1.9c0.1-0.6,0.3-1.2,0.4-1.8
					c0.3-1.1,0.4-2,0.5-2.6c-0.2,1.1-0.4,2.2-0.7,3.3c-0.2,1.1-0.6,2.1-0.9,3.1c0.3-1.1,0.6-2.2,0.9-3.3l0.4-1.7l0.3-1.7l0-0.3
					c0.5-3.8,0.5-7,0.4-9.6c-0.1,1.3-0.1,3.2-0.3,4.8c-0.1,0.8-0.2,1.5-0.3,2C122.1,69.4,122.1,69.7,122.1,69.7z"/>
				<path class="st2" d="M11.6,25.9c1.4-1.9,3.4-4.3,5.5-6.5c2.1-2.2,4.3-4.1,6-5.4c1.3-0.9,2.2-1.5,2.8-1.9c0.6-0.3,1-0.5,1.2-0.5
					c0.5-0.1,0.6,0,1.7-0.6c-4.1,2.7-7.9,5.9-11.3,9.5c-3.4,3.6-6.2,7.7-8.6,12c-2.4,4.3-4.2,9-5.5,13.8C2.2,51.1,1.5,56,1.5,61
					c0-2.5,0.1-5.8,0.6-9c0.5-3.2,1.2-6.3,1.7-8.3c0,0,0,0.1-0.1,0.3c-0.1,0.2-0.1,0.4-0.2,0.6c-0.2,0.5-0.3,1.1-0.5,1.5
					c0.6-2.5,1.6-5.7,2.7-8.3c0.6-1.3,1-2.4,1.4-3.2c0.4-0.8,0.6-1.3,0.5-1.3c-0.1,0-0.9,1.3-1.3,1.9c0.3-0.6,0.6-1.1,0.8-1.7
					C8,31.7,9.5,28.9,11.6,25.9z"/>
				<path class="st2" d="M0.3,61.3c0-4.7,0.5-9.4,1.6-14c0,0,0.1-0.2,0.2-0.3c-1.3,5.4-1.8,10.9-1.6,16.5C0.4,62.7,0.3,62,0.3,61.3z
					"/>
				<path class="st2" d="M3,46.1c0.1-0.4,0.3-1,0.5-1.5c0.1-0.2,0.2-0.5,0.2-0.6c0.1-0.2,0.1-0.3,0.1-0.3c-0.5,2-1.2,5.1-1.7,8.3
					c-0.5,3.2-0.6,6.6-0.6,9c-0.1,7.6,1.3,15.3,4.2,22.4c-0.5-1.2-1-2.4-1.4-3.7c1.4,4,1.5,4.9,3.3,8.7c-3-5.5-5.3-12.5-6.2-19.4
					c-1-6.9-0.6-13.5,0-18.1c0.4-2.7,1.1-5.4,1.9-8.1c0.8-2.6,1.8-5.2,3-7.7c0.4-0.6,1.2-2,1.3-1.9c0,0-0.2,0.5-0.5,1.3
					c-0.4,0.8-0.8,1.9-1.4,3.2C4.6,40.4,3.6,43.6,3,46.1z"/>
				<path class="st2" d="M7.5,88.4c-1.9-3.8-1.9-4.7-3.3-8.7c0.4,1.3,0.9,2.5,1.4,3.7c3.2,8.2,8.3,15.7,14.7,21.8
					c0.4,0.4,0.8,0.8,1.3,1.2c2.5,2.3,5,4.1,7.6,5.8c2.6,1.7,5.2,3.1,8.1,4.4c-3.9-1.6-7.6-3.6-11.2-6c-6.5-4.9-12.5-11.6-17.1-20
					c0.8,1.5,1.1,2.1,1.3,2.4c0.2,0.4,0.3,0.6,0.7,1.3c1.6,2.7,3.3,5.1,4.4,6.5c1.1,1.4,1.4,2,0.3,0.9C6.8,91.6,1.3,78.6,0.5,65.1
					c0-0.5,0-1,0-1.5c0-0.5,0-1,0-1.4c-0.1-3.8,0.2-7.5,0.8-11.2c-0.6,4.7-1,11.3,0,18.1C2.3,75.9,4.6,82.9,7.5,88.4z"/>
				<path class="st2" d="M26.1,110.5c3.6,2.5,7.3,4.4,11.2,6c0.7,0.3,1.5,0.7,2.2,1c0.8,0.3,1.5,0.6,2.4,0.9c0,0,0-0.1-0.5-0.3
					c1.1,0.4,2.2,0.8,3.4,1.1c0.7,0.2,1.4,0.4,2.1,0.6c0.7,0.2,1.6,0.4,2.6,0.5c1.6,0.3,3.3,0.6,5,0.8c1.7,0.3,3.2,0.4,4.1,0.5
					l0-0.1c0.9,0,1.7,0,2.5,0.1c0.8,0,1.7,0,2.5,0c0,0,0,0,0.1-0.1c3.9,0,8.7-0.7,12.6-1.7c2-0.5,3.7-1.1,5.1-1.5
					c1.4-0.5,2.4-0.9,2.9-1.1c1.1-0.4,2.1-0.9,3.2-1.4c-3.5,1.9-8.1,4-15.4,5.5c0,0,0,0.1-0.8,0.3c-1.5,0.3-3,0.5-4.6,0.7
					c-4.7,0.3-10,0.1-14.2-0.6c-4.2-0.6-7.2-1.5-7.4-1.6c-1.3-0.3-2.6-0.8-3.8-1.2c-3.6-1.3-8-3.3-12.2-6c-2.1-1.3-4.1-2.8-6.1-4.4
					c-1.9-1.6-3.7-3.2-5.3-4.7c-0.7-0.8-1.5-1.5-2.1-2.3c1.1,1.1,0.8,0.6-0.3-0.9c-1.1-1.4-2.8-3.9-4.4-6.5c-0.9-1.4-3.4-6.4-2-3.8
					c2.5,4.7,6.5,10.1,10.3,14c1.9,1.9,3.6,3.5,4.9,4.5C25.4,110,26.2,110.6,26.1,110.5z"/>
				<path class="st2" d="M36.1,6.2c-2.6,1.2-5.2,2.7-7.7,4.3c2.7-1.8,5.5-3.3,7.1-4c0.6-0.3,1.3-0.6,2-0.9c0.7-0.3,1.5-0.7,2.2-0.9
					C38.6,5,37.3,5.5,36.1,6.2z"/>
				<path class="st2" d="M41.2,3.5C42,3.2,42.8,3,43.6,2.7c0,0.1-1.6,0.6-3.2,1.2c0,0,0.4-0.1,0.8-0.3c0.2-0.1,0.4-0.2,0.6-0.2
					C41.9,3.4,42,3.4,42,3.4c0,0.1-0.9,0.4-2,0.8c0-0.1,1.1-0.8,2.3-1.2L44,2.5C43.1,2.8,41.6,3.3,41.2,3.5z"/>
				<path class="st2" d="M69.5,0.5c0.6,0.1,1.2,0.2,1.8,0.3c0.5,0.1,1.1,0.2,1.6,0.3C74,1.3,75,1.6,76.2,1.9c-3.1-0.6-5.7-0.8-8.2-1
					c-7.6-0.9-15.3-0.3-22.8,1.8c1.3-0.4,2.6-0.8,3.8-1c-0.8,0.2-1.6,0.3-2.3,0.5c-0.8,0.2-1.5,0.4-2.2,0.6c0.3-0.1,0.5-0.2,0.8-0.3
					v0c1.1-0.3,2.1-0.5,2-0.6c0,0-0.1,0-0.3,0.1c-0.2,0-0.4,0.1-0.6,0.2c-0.4,0.1-0.8,0.2-0.8,0.2c0.8-0.2,1.7-0.4,2.3-0.6
					c0.6-0.2,1-0.3,1-0.3c-0.8,0.2-1.7,0.4-2.5,0.6c0.2-0.1,0.7-0.2,1.3-0.4c0.5-0.1,1.2-0.3,1.6-0.4c7.3-1.5,14.8-1.7,22.1-0.5
					C70.9,0.7,70.2,0.6,69.5,0.5z"/>
			</g>
		</g>
		<g class="st1">
			<g class="st1">
				<path class="st2" d="M14.3,27.4c3-3.6,6.4-6.8,10.2-9.6c3.8-2.8,7.8-5.1,12.1-7c-1.9,0.8-3.7,1.7-5.5,2.8
					C25.1,16.9,19.2,21.6,14.3,27.4z"/>
				<path class="st2" d="M2.3,49.9C2.3,49.9,2.3,49.9,2.3,49.9c2-7,5.2-13.6,9.5-19.4c-0.3,0.4-0.6,0.8-0.9,1.2
					C7.1,37.3,4.2,43.4,2.3,49.9z"/>
				<path class="st2" d="M64.7,127.3c-3.6,0.2-7.7,0.2-11.8-0.3c-4.1-0.5-8.4-1.5-12.3-2.9c-1-0.3-2-0.8-3-1.1
					c-1-0.4-1.9-0.8-2.7-1.2c0,0-0.2-0.1-0.5-0.2c-0.3-0.2-0.8-0.4-1.3-0.7c-1.1-0.6-2.7-1.4-4.4-2.5c-3.4-2.1-7.1-5.1-9.5-7.3
					c2.8,2.6,5.4,4.5,7.6,6c-1-0.7-2.6-1.9-3.9-2.9c-0.6-0.5-1.2-1-1.6-1.3c-0.3-0.3-0.5-0.5-0.6-0.6c1,0.8,5,4.2,9.7,6.9
					c0.2,0.1,0.6,0.4,1.3,0.8c0.7,0.4,1.6,0.8,2.7,1.4c2.3,1.1,5.3,2.4,8.8,3.4c3.5,1.1,7.3,1.9,11.1,2.3
					C58.1,127.5,61.7,127.5,64.7,127.3z"/>
				<path class="st2" d="M91.3,119.3c3.3-1.9,7-4.5,10-7.2c3-2.7,5.4-5.4,6.8-7c-1.6,1.9-3.3,3.9-5.6,6c0.9-0.9,1.7-1.6,2.4-2.4
					c0.4-0.4,0.7-0.8,1.1-1.2c0.4-0.4,0.8-0.9,1.2-1.3c-0.4,0.5-0.9,1-1.3,1.5c-8.7,9.5-20.4,16.2-32.9,18.6c0.2,0,1.3-0.3,2.9-0.7
					c1.6-0.4,3.6-1,5.7-1.8C85.7,122.5,89.9,120.3,91.3,119.3z"/>
				<path class="st2" d="M69.9,126.8c2.9-0.5,5.5-1,7.8-1.7c2.4-0.6,4.7-1.5,7-2.4c2.3-1,4.5-2.1,6.6-3.3c-3,1.8-7.4,4.1-13.1,5.8
					c0.8-0.2,1.5-0.5,2.4-0.7c-3.9,1.3-6.7,1.9-7.6,2.1c-11.6,2.4-23.9,1.2-35-3.3c0.6,0.2,1.2,0.5,1.8,0.7c0.6,0.2,1.2,0.4,1.8,0.6
					c1.2,0.4,2.4,0.8,3.7,1.1c-0.7-0.2-1.4-0.4-2.1-0.6c-0.8-0.2-1.7-0.6-2.6-0.9c3.9,1.4,8.1,2.3,12.3,2.9
					c4.1,0.5,8.2,0.6,11.8,0.3c0.8-0.1,1.7-0.1,2.5-0.2C67.9,127.1,68.6,127,69.9,126.8z"/>
				<path class="st2" d="M5.2,42.2C2.3,49,1.3,54,0.8,57.9c-0.3,2.1-0.7,6.3-0.6,9.3c0,2.8,0.3,7.1,1.1,10.9C2,81.9,3,85.1,3.3,86
					c0.2,0.4,0,0-0.4-1.1c-0.3-1.1-0.9-2.7-1.3-4.7c-0.9-3.8-1.5-8.7-1.6-11.4c0-0.3-0.1-1.2-0.1-2.4c0-1.2,0-2.8,0.2-4.5
					c0.1-0.8,0-0.5,0.1-1.3c0,0,0-0.5,0.1-1c0.1-0.5,0.1-1,0.1-1s0.1-0.5,0.2-1.3c0.1-0.8,0.3-1.9,0.6-3.2c0.5-2.5,1.3-5.4,2-7.3
					C3.6,46,4.2,44.4,4.8,43c0.6-1.3,1.1-2.4,1.1-2.6c0.5-1,1-2.1,1.6-3.1c0,0,0-0.1,0.1-0.1c-0.7,1.3-1.4,2.7-2,4.1
					C5.2,42.2,5.2,42.2,5.2,42.2z"/>
				<path class="st2" d="M20.7,112.3c1,0.8,5,4.2,9.7,6.9c-0.9-0.5-2.5-1.5-3.9-2.5c-0.7-0.5-1.3-1-1.8-1.3c-0.5-0.4-0.8-0.7-1-0.7
					c0.5,0.4,1.3,1.1,0.3,0.3c-2.7-2-5.9-4.9-7.6-6.9c-2.2-2.4-4.4-5.2-6.3-8.1c-1.6-2.4-2.9-4.9-4.2-7.4c-0.1-0.1-0.6-1.2-0.7-1.5
					c-0.8-1.8-1.4-3.5-2-5.1c0,0-0.1-0.3-0.2-0.7c-0.2-0.4-0.3-1-0.5-1.8c-0.4-1.5-0.9-3.4-1.3-5.5c-0.8-4.1-1.1-8.4-1.1-9.3
					c0-0.3-0.1-1.2-0.1-2.4c0-1.2,0-2.8,0.2-4.5c0,0-0.1,0.7-0.1,1.7c0,1-0.1,2.4-0.1,3.9c0,3,0.4,6.6,0.7,8.9
					c-0.1-0.2-0.2-1.9-0.3-2.4c0,0.6,0.7,5.2,1.2,6.9c0.1,0.7,0.4,1.7,0.7,2.8c0.3,1.1,0.7,2.2,1,3.3c0.8,2.1,1.5,4,1.7,4.3
					c0.2,0.4,0.1,0.2,0-0.1c-0.1-0.3-0.3-0.7-0.3-0.7c1.4,3.3,3.2,6.7,5.3,9.9c0.6,0.9,1.2,1.7,1.8,2.6c0.2,0.3,0.3,0.5,0.1,0.1
					c-0.4-0.5-0.8-1.1-1.2-1.6c0.3,0.4,0.8,1.1,1.4,2c0.7,0.8,1.4,1.9,2.3,2.9c0.4,0.5,0.8,1,1.3,1.5c0.4,0.5,0.8,0.9,1.2,1.3
					c0.8,0.8,1.4,1.4,1.8,1.8c-0.8-0.8-1.6-1.6-2.3-2.4c-0.8-0.8-1.5-1.6-2.2-2.4c0.7,0.9,1.5,1.7,2.3,2.5l1.2,1.2L19,111l0.2,0.2
					c2.8,2.5,5.4,4.5,7.5,5.9c-1-0.7-2.6-1.9-3.9-2.9c-0.6-0.5-1.2-1-1.6-1.3C21,112.6,20.9,112.4,20.7,112.3z"/>
				<path class="st2" d="M117.7,44.3c0.9,2.2,1.8,5.1,2.5,8.1c0.7,2.9,1.1,5.8,1.3,7.9c0.1,1.6,0.2,2.6,0.2,3.3c0,0.7,0,1.1,0,1.3
					c0,0.5-0.1,0.5-0.1,1.8c0-5-0.6-9.9-1.8-14.7c-1.2-4.8-3-9.5-5.3-13.9c-2.3-4.4-5.3-8.5-8.6-12.2c-3.4-3.7-7.2-7-11.3-9.8
					c2.1,1.4,4.8,3.4,7.2,5.6c2.4,2.2,4.5,4.5,5.9,6.1c-0.2-0.2-1.1-1.3-1.7-2c1.7,1.9,3.9,4.6,5.4,6.9c0.7,1.2,1.4,2.2,1.9,3
					c0.4,0.8,0.7,1.2,0.7,1.2s-0.2-0.3-0.4-0.8c-0.2-0.4-0.5-0.9-0.7-1.2c0.3,0.5,0.6,1.1,1,1.6C115,38.2,116.4,41,117.7,44.3z"/>
				<path class="st2" d="M94.5,15.7c3.9,2.5,7.5,5.6,10.7,9c0.1,0.1,0.1,0.2,0.2,0.3c-3.7-4-8-7.5-12.7-10.4
					C93.4,15,94,15.4,94.5,15.7z"/>
				<path class="st2" d="M106.1,25.8c0.5,0.6,1.4,1.7,1.7,2c-1.3-1.6-3.5-3.9-5.9-6.1c-2.4-2.2-5.1-4.2-7.2-5.6
					c-6.4-4.3-13.6-7.3-21.1-8.9c1.3,0.3,2.6,0.6,3.9,0.9c-4.1-1.1-5-1.3-9.2-1.9c6.2,0.6,13.3,2.7,19.5,5.7c6.2,3,11.5,7,14.9,10.2
					c2,1.8,3.9,3.9,5.6,6c1.7,2.1,3.3,4.4,4.8,6.7c0.2,0.3,0.5,0.8,0.7,1.2c0.2,0.4,0.4,0.8,0.4,0.8s-0.3-0.5-0.7-1.2
					c-0.4-0.8-1.1-1.8-1.9-3C109.9,30.4,107.8,27.7,106.1,25.8z"/>
				<path class="st2" d="M68.2,6.3c4.2,0.6,5.1,0.8,9.2,1.9c-1.3-0.4-2.6-0.6-3.9-0.9c-8.7-1.8-17.8-1.7-26.4,0.3
					c-0.6,0.1-1.2,0.2-1.7,0.4c-3.3,0.8-6.2,2-9,3.2c-2.8,1.2-5.5,2.7-8.2,4.4c3.5-2.3,7.3-4.2,11.4-5.8c7.6-2.8,16.5-4.4,26.1-3.6
					c-1.7-0.2-2.3-0.1-2.8-0.2c-0.5,0-0.8,0-1.5-0.1c-3.1,0-6.1,0.2-7.9,0.4c-1.8,0.2-2.4,0.2-0.8,0c13.2-1.8,27,0.8,38.6,7.5
					c0.4,0.2,0.9,0.5,1.3,0.8c0.5,0.3,0.9,0.6,1.2,0.8c3.1,2,6.1,4.3,8.8,6.9C99.2,18.9,93.9,15,87.7,12C81.5,8.9,74.4,6.9,68.2,6.3
					z"/>
				<path class="st2" d="M39.5,9.7c-4.1,1.6-7.8,3.5-11.4,5.8c-0.7,0.4-1.4,0.9-2,1.4c-0.7,0.5-1.4,0.9-2.1,1.5c0,0,0,0,0.5-0.3
					c-0.9,0.8-1.9,1.5-2.8,2.2c-0.5,0.5-1.1,0.9-1.7,1.4c-0.5,0.5-1.1,1-1.9,1.8c-1.2,1.2-2.3,2.4-3.4,3.7c-1.2,1.3-2,2.5-2.6,3.2
					l0,0c-0.5,0.7-1,1.4-1.5,2.1c-0.5,0.7-0.9,1.4-1.4,2.1c0,0,0,0-0.1,0.1C7.1,38.2,5,42.5,3.7,46.4c-0.7,1.9-1.2,3.7-1.6,5.1
					c-0.3,1.4-0.6,2.5-0.7,3c-0.2,1.1-0.4,2.3-0.6,3.4C1.3,54,2.3,49,5.2,42.2c0,0,0,0,0.3-0.8c0.6-1.4,1.3-2.8,2-4.1
					c2.2-4.1,5.4-8.4,8.2-11.5c2.8-3.1,5.2-5.1,5.4-5.3c1-0.9,2.1-1.7,3.1-2.5c3-2.3,7.1-4.9,11.6-6.9c2.2-1.1,4.6-1.9,6.9-2.7
					c2.3-0.7,4.7-1.3,6.8-1.7c1-0.2,2-0.4,3.1-0.5c-1.6,0.2-1,0.2,0.8,0c1.8-0.2,4.7-0.4,7.9-0.4c1.7,0,7.2,0.5,4.3,0.2
					c-5.3-0.5-12.1,0-17.4,1.1c-2.6,0.6-4.9,1.2-6.4,1.7C40.3,9.4,39.4,9.7,39.5,9.7z"/>
				<path class="st2" d="M121.2,75.5c0.4-2.9,0.6-5.8,0.7-8.8c0,3.2-0.3,6.4-0.5,8.1c-0.1,0.7-0.2,1.4-0.3,2.2
					c-0.1,0.8-0.3,1.6-0.4,2.4C120.8,78.2,121,76.9,121.2,75.5z"/>
				<path class="st2" d="M120.2,81.1c-0.2,0.8-0.4,1.7-0.7,2.5c0,0,0.1-0.4,0.3-1c0.2-0.6,0.4-1.5,0.6-2.3c-0.1,0.6-0.3,1.4-0.4,1.7
					c0,0,0-0.2,0.1-0.6c0.1-0.4,0.2-0.9,0.3-1.5c0,0,0,0.1,0,0.2c0,0.2-0.1,0.4-0.1,0.6c-0.1,0.5-0.2,1.1-0.4,1.7l-0.5,1.6
					C119.7,83,120.1,81.5,120.2,81.1z"/>
				<path class="st2" d="M107.2,106.3c-0.4,0.5-0.8,0.9-1.2,1.3c-0.4,0.4-0.8,0.8-1.1,1.2c-0.7,0.8-1.5,1.5-2.4,2.4
					c2.3-2.2,4-4.1,5.6-6c4.9-6,8.6-12.7,10.9-20.1c-0.4,1.3-0.8,2.6-1.3,3.7c0.3-0.8,0.6-1.5,0.8-2.3c0.2-0.7,0.5-1.5,0.7-2.1
					c-0.1,0.3-0.2,0.6-0.2,0.8l0,0c-0.2,0.6-0.4,1-0.5,1.4c-0.1,0.4-0.2,0.6-0.2,0.6c0.1-0.3,0.3-1,0.6-1.6
					c-0.3,0.8-0.5,1.6-0.8,2.2c-0.2,0.6-0.4,1-0.4,1c0.3-0.8,0.6-1.6,0.9-2.4c-0.1,0.3-0.2,0.7-0.4,1.2c-0.2,0.5-0.4,1.1-0.6,1.6
					c-2.7,6.9-6.7,13.2-11.7,18.6C106.4,107.3,106.8,106.8,107.2,106.3z"/>
			</g>
		</g>
	</g>
	<g>
		<path class="st2" d="M26.5,31.4c0.2,0,0.4-0.1,0.5-0.1c0.1-0.1,0.1-0.2,0.2-0.3c0-0.1,0-0.3,0-0.6v-3.9c0-0.3,0-0.5,0-0.7l-0.7,0
			v-0.4c0.8,0,1.5,0,2,0c0.9,0,1.6,0.2,2,0.5c0.5,0.3,0.7,0.8,0.7,1.4c0,0.4-0.1,0.7-0.3,1c-0.2,0.3-0.5,0.6-1,0.8
			c-0.4,0.2-1,0.3-1.8,0.3c-0.1,0-0.2,0-0.3,0v1.3c0,0.3,0,0.6,0,0.7l0.8,0v0.4h-2.2C26.5,31.7,26.5,31.4,26.5,31.4z M29.5,28.8
			c0.3-0.1,0.5-0.3,0.7-0.6c0.2-0.3,0.2-0.6,0.2-0.9c0-0.5-0.2-0.9-0.5-1.2c-0.3-0.3-0.8-0.4-1.4-0.4c-0.2,0-0.4,0-0.4,0.1
			C28,25.9,28,26,28,26.2c0,0.1,0,0.3,0,0.6V29c0.1,0,0.3,0,0.6,0C28.9,29,29.2,28.9,29.5,28.8z"/>
		<path class="st2" d="M33.5,31.4c-0.5-0.3-0.8-0.7-1.1-1.2c-0.2-0.5-0.3-1-0.3-1.6c0-0.5,0.1-1.1,0.4-1.6c0.2-0.5,0.6-0.9,1.1-1.3
			s1-0.5,1.7-0.5c0.7,0,1.3,0.2,1.8,0.5c0.5,0.3,0.8,0.7,1.1,1.3c0.2,0.5,0.4,1,0.4,1.6c0,0.5-0.1,1.1-0.4,1.6
			c-0.2,0.5-0.6,0.9-1.1,1.3c-0.5,0.3-1,0.5-1.7,0.5C34.6,31.9,34,31.7,33.5,31.4z M36.5,31.1c0.3-0.3,0.6-0.6,0.8-1
			s0.3-0.9,0.3-1.3c0-0.5-0.1-1-0.3-1.5c-0.2-0.5-0.5-0.9-0.8-1.2c-0.4-0.3-0.8-0.5-1.2-0.5c-0.5,0-0.9,0.1-1.2,0.4s-0.6,0.6-0.8,1
			S33,27.9,33,28.4c0,0.5,0.1,1,0.3,1.4c0.2,0.5,0.4,0.9,0.8,1.2c0.4,0.3,0.8,0.5,1.3,0.5C35.8,31.5,36.2,31.4,36.5,31.1z"/>
		<path class="st2" d="M40.8,31.5c-0.4-0.2-0.6-0.6-0.8-1s-0.2-1.1-0.2-1.9v-1.8c0-0.4,0-0.7,0-1.1l-0.7,0v-0.4h2v0.3
			c-0.3,0-0.4,0.1-0.5,0.2s-0.1,0.3-0.1,0.5v2.3c0,0.5,0,1,0.1,1.4s0.3,0.7,0.6,0.9s0.7,0.4,1.2,0.4c0.6,0,1.1-0.2,1.4-0.6
			c0.3-0.4,0.5-1,0.5-1.8l0-2.5c0-0.3,0-0.5,0-0.7l-0.6,0v-0.4h1.7v0.3c-0.2,0-0.4,0.1-0.5,0.1c-0.1,0.1-0.1,0.2-0.2,0.3
			c0,0.1,0,0.3,0,0.6l0,2.1c0,0.9-0.2,1.6-0.6,2.1s-1,0.8-1.9,0.8C41.6,31.9,41.1,31.8,40.8,31.5z"/>
		<path class="st2" d="M46.3,31.4c0.2,0,0.4-0.1,0.5-0.1c0.1-0.1,0.1-0.2,0.2-0.3c0-0.1,0-0.3,0-0.6v-3.9c0-0.3,0-0.5,0-0.7l-0.7,0
			v-0.4c0.6,0,1.1,0,1.4,0c0.3,0,0.5,0,0.7,0c0.9,0,1.5,0.2,1.9,0.4c0.4,0.3,0.6,0.7,0.6,1.2c0,0.4-0.1,0.8-0.4,1.1
			c-0.3,0.3-0.7,0.6-1.3,0.7c0.1,0.1,0.2,0.2,0.3,0.3s0.2,0.3,0.3,0.5l0.6,1c0.1,0.2,0.2,0.4,0.3,0.5s0.2,0.2,0.3,0.3
			c0.1,0.1,0.3,0.1,0.5,0.1v0.3h-1.1c-0.2-0.1-0.3-0.3-0.4-0.4s-0.2-0.3-0.4-0.6l-0.6-1l-0.1-0.2c-0.1-0.2-0.2-0.3-0.3-0.4
			c-0.1-0.1-0.2-0.2-0.2-0.3c-0.1,0-0.1,0-0.3,0c-0.2,0-0.3,0-0.4,0v1.8c0,0.3,0,0.6,0,0.7l0.7,0v0.4h-2V31.4z M49.9,27.1
			c0-0.5-0.1-0.8-0.4-1c-0.3-0.2-0.7-0.3-1.2-0.3c-0.2,0-0.4,0-0.5,0.1c-0.1,0.1-0.1,0.2-0.2,0.3c0,0.1,0,0.3,0,0.6v1.7
			c0.2,0,0.3,0,0.4,0C49.3,28.6,49.9,28.1,49.9,27.1z"/>
	</g>
	<g>
		<path class="st2" d="M59,33.5c2.3-3.9,4.3-7.6,4.4-8.4c1.3-2.4,0.7-4.7,2.7-6.9c0.7-0.7,2.1-1.4,3.1-1.9c2.1-0.6,3.1,0.7,3.3,2.5
			c0.2,2.6-1.3,4.9-2.6,6.9c-4.3,6.9-9.2,13.3-14.3,19.8c-3.6,4.8-7.3,9.7-11.3,14.5c-4.6,5.5-9.5,11-14.8,16.3c-3,3-6,5.9-9.3,8.7
			c4.8-0.5,10.3-1.2,12.6-1.4c0.1,0,15.3-1.6,16.5-1.7c10.2-1.3,20.8-2.2,29.9-1.7c4.7,0.2,15.3-0.3,21.5,2.1
			c2.3,0.9,4.2,1.5,4.6,2.6c0.2,0.6,0.1,1.3-0.6,2.2c-0.4,0.6-0.9-0.1-1.7,0.8c-0.8,0.4-1.9-0.1-2.7-2.1c-0.2-0.6-1.9-1.7-3.2-2.2
			c-1.1-0.4-2.4-0.6-3.8-0.7c-1.2-0.1-2.3-0.2-3.6-0.3c-4.1-0.3-7.9-0.4-11.9-0.4c-7.5,0.1-15,0.6-22.3,1.4
			c-8.9,1-17.8,2.4-26.5,4.1l-11.4,2.9c-2.8,0.6-4.4,2.4-8.4,4.1l-1.7,1.4l-1.7,0.4c-1.7,0.1-2.3,0.2-2.6-0.2
			c-0.4,0-0.3-0.7-0.7-0.8c-1.1-0.2,0.1-3.7,1.8-5.5c2-2.2,5.9-3.8,10-4.6c3.4-2.4,6.8-4.7,10.2-8c6-6,12.3-13.1,17.9-20.4
			c3.5-4.5,6.6-9.5,9.7-13.7L59,33.5z"/>
		<path class="st2" d="M66.4,63.1c1.2-2.5,2.3-4.9,3.5-6.5c1.4-2.2,3.5-2.5,5.1-2.7c0.9-0.1,2.1,0.8,2.2,1.6
			c0.4,0.9-0.3,1.7-0.9,2.3c-1,1.1-1.9,1.5-2.6,1.9c-0.6,0.6-1.2,1-1.7,1.4c-1,0.9-1.6,1.7-2.2,2.9c-0.9,1.8-1.1,2.8-0.7,4.3
			c0.6,2.4,3.6,2.1,5.4,1.8c3.6-0.8,7.1-1.3,10.5-2.4c2.3-0.8,4.7-1.9,6.7-3.1c1.1-0.2,2.2,0.1,1.4,0.8c-5.4,3.6-13,7.8-20,8.7
			c-3.2,0.4-7.2,0-8.3-3.4C64,68.3,65,65.9,66.4,63.1z M85.9,34.3c0.7,0.4,1.3,0.8,0.3,2.3c-1.8,2.4-2.3,2.9-4.4,4.1
			c-0.1,0.1-2.2,0.8-3.3-0.2c-0.4-0.4-0.2-1.2-0.4-1.6c-0.6-1.8,2.3-2.9,4.4-3.8c0.8-0.4,0.6-0.2,1.1-0.4
			C84.8,34.2,85.5,34.1,85.9,34.3z"/>
		<path class="st2" d="M127.6,51.3c-0.7,0.1-1.2,0.3-1.8,0.6c-1.4,0.6-3.6,1.4-5,2.2c-2.2,1.2-2.8,1.7-4.7,3.6
			c-0.4,0.4-3.2,2.8-4.7,3.9c-3.5,2.9-2.7,2.6-7.9,6.7c-1.7,1.3-6.8,6.3-9.6,6.5c-4,0.2-3.7-4.1-3.4-6.1c0.5-2.7,1.6-4.7,1.7-7.6
			c-0.8-0.2-0.4-3.1-0.4-4c0.1-0.9,0.2-1.4,1-2.2c1-0.6,1.6-0.7,2.8-0.4c5.4,3.4,0.8,7.9-0.2,12.6c-0.2,0.8-0.1,1.8,0.3,1.7
			c0.8-0.4,1.4,0,2.2-0.4c1.2-0.7,2.4-1.7,3.2-2.3c5.3-4.2,5.5-5.1,9.5-8.3c2.1-1.7,4.2-3,6.5-4.6c1.1-0.9,2.3-1.4,3.5-2.1
			c2.2-1.2,3.5-1.6,6.1-1.6c0.9,0,2.2,0.3,2.6,0.8c0.5,0.7,0.1,0.9-0.1,0.9C129,51.5,128.2,51.3,127.6,51.3z"/>
	</g>
</g>
</svg>
