<svg id="Calque_1" data-name="Calque 1" xmlns="http://www.w3.org/2000/svg" width="540.19" height="129.93" viewBox="0 0 540.19 129.93"><defs><style>.cls-1{fill:#fff;}</style></defs><path class="cls-1" d="M43.71,129.93A43.75,43.75,0,0,1,0,86.23v-61L47.21,0V64.79A36.75,36.75,0,0,0,77.35,100.9a36.45,36.45,0,0,0,3.06-14.67v-61L127.61,0V64.79a43.75,43.75,0,0,1-43.7,43.7c-.86,0-1.71,0-2.56-.07A43.73,43.73,0,0,1,43.71,129.93ZM7,29.38V86.23A36.7,36.7,0,0,0,73.75,107.3,43.78,43.78,0,0,1,40.21,64.79V11.67Zm80.41,0V86.23a43.37,43.37,0,0,1-2.75,15.25,36.74,36.74,0,0,0,36-36.69V11.67Z"/><path class="cls-1" d="M232.39,99.53q6.51-5.76,6.51-17.08V46.8H227.47v34q0,7.25-3.22,10.69t-10,3.45q-6.79,0-10-3.45T201,80.75V46.8H189.11V82.45a24.24,24.24,0,0,0,3.06,12.67,19,19,0,0,0,8.65,7.64,32.38,32.38,0,0,0,13.41,2.54q11.66,0,18.16-5.77"/><path class="cls-1" d="M258.46,50.88Q252,56.64,252,68v35.65h11.43V69.66q0-7.24,3.22-10.69t10-3.46q6.78,0,10,3.46t3.23,10.69v34h11.88V68a24.21,24.21,0,0,0-3.06-12.67A19,19,0,0,0,290,47.65a32.14,32.14,0,0,0-13.4-2.55q-11.65,0-18.17,5.78"/><rect class="cls-1" x="163.99" y="25.3" width="11.77" height="78.3"/><path class="cls-1" d="M318.55,39.77a7.24,7.24,0,1,0-7.24-7.24,7.23,7.23,0,0,0,7.24,7.24"/><polygon class="cls-1" points="324.51 103.61 324.4 47.14 312.52 47.14 312.52 103.61 324.51 103.61"/><path class="cls-1" d="M528.42,103.49a18.34,18.34,0,0,0,8.43-5.77,16.23,16.23,0,0,0,3.34-10.29,15.79,15.79,0,0,0-1.64-7.7A14,14,0,0,0,534.31,75a20.68,20.68,0,0,0-5.66-2.77l-5.88-1.87c-2-.6-3.95-1.21-5.72-1.81a11.32,11.32,0,0,1-4.3-2.49,5.72,5.72,0,0,1-1.64-4.3,5.22,5.22,0,0,1,2.94-4.81,15,15,0,0,1,7.36-1.64,20.79,20.79,0,0,1,8.37,1.58c2.42,1.06,5,2.31,7.7,3.74l-.12-10.19A56.65,56.65,0,0,0,530,47.14a31.62,31.62,0,0,0-9.79-1.47,30.15,30.15,0,0,0-7.41,1,21.71,21.71,0,0,0-6.9,3.06,16.21,16.21,0,0,0-5,5.43,16,16,0,0,0-1.92,8.09,15.54,15.54,0,0,0,1.53,7.24,13.63,13.63,0,0,0,4.07,4.81,21.23,21.23,0,0,0,5.6,2.94q3.06,1.08,6.11,1.87,2.94,1,5.66,2a15.27,15.27,0,0,1,4.47,2.49,5,5,0,0,1,1.76,4.07,6.11,6.11,0,0,1-2.78,5.09,12.65,12.65,0,0,1-7.64,2,28.08,28.08,0,0,1-6.95-.79,29.58,29.58,0,0,1-5.94-2.21c-1.89-.94-3.82-2-5.78-3.22v11.2a61.58,61.58,0,0,0,8.32,3.22,35.6,35.6,0,0,0,10.35,1.3,32.4,32.4,0,0,0,10.75-1.81"/><path class="cls-1" d="M493.3,46.69a37.18,37.18,0,0,0-8.83-1q-11.66,0-18.16,5.77T459.8,68.57v35h11.43V70.26q0-7.24,3.23-10.69t10-3.45c3.76,0,6.71.79,8.83,2.38Z"/><path class="cls-1" d="M436.22,104.23a49.27,49.27,0,0,0,8.94-2.77v-11a51.37,51.37,0,0,1-4.87,2.09,39.87,39.87,0,0,1-6.16,1.76,36.35,36.35,0,0,1-7.19.68q-8.6,0-13-4.93t-4.42-14.42q0-7.81,1.65-12.28A11.64,11.64,0,0,1,416,57a15,15,0,0,1,7.7-1.86q7,0,10.3,4t3.62,12.73l2.83-2.83h-36l.34,8.83h44.7a50.24,50.24,0,0,0-2.43-17,22.81,22.81,0,0,0-8.21-11.37q-5.65-4.08-14.82-4.08-12.45,0-19.41,7.64t-7,22.46q0,9.63,3.34,16.3a22.76,22.76,0,0,0,9.51,10.07A29.7,29.7,0,0,0,425,105.3a53.78,53.78,0,0,0,11.2-1.07"/><polygon class="cls-1" points="370.48 103.61 394.47 46.8 382.14 46.8 364.03 94.33 366.86 93.99 347.4 46.8 334.72 46.8 358.6 103.61 370.48 103.61"/></svg>